<svg width="100" height="100" viewBox="0 0 100 100" fill="none" xmlns="http://www.w3.org/2000/svg">
<circle cx="50" cy="50" r="50" fill="#FEB918"/>
<g clip-path="url(#clip0_603_3558)">
<path d="M32.625 35H66.375C66.8723 35 67.3492 35.1756 67.7008 35.4882C68.0525 35.8007 68.25 36.2246 68.25 36.6667V63.3333C68.25 63.7754 68.0525 64.1993 67.7008 64.5118C67.3492 64.8244 66.8723 65 66.375 65H32.625C32.1277 65 31.6508 64.8244 31.2992 64.5118C30.9475 64.1993 30.75 63.7754 30.75 63.3333V36.6667C30.75 36.2246 30.9475 35.8007 31.2992 35.4882C31.6508 35.1756 32.1277 35 32.625 35ZM49.6125 49.4717L37.59 40.3967L35.1619 42.9367L49.6369 53.8617L63.8512 42.9283L61.3988 40.4067L49.6144 49.4717H49.6125Z" fill="white"/>
</g>
<defs>
<clipPath id="clip0_603_3558">
<rect width="45" height="40" fill="white" transform="translate(27 30)"/>
</clipPath>
</defs>
</svg>
