<svg width="100" height="100" viewBox="0 0 100 100" fill="none" xmlns="http://www.w3.org/2000/svg">
<circle cx="50" cy="50" r="50" fill="#FEB918"/>
<g clip-path="url(#clip0_603_3563)">
<path d="M66.75 58.735V64.923C66.7502 65.3661 66.5823 65.7927 66.2803 66.1168C65.9782 66.441 65.5645 66.6385 65.1225 66.6695C64.3577 66.722 63.733 66.75 63.25 66.75C47.7852 66.75 35.25 54.2148 35.25 38.75C35.25 38.267 35.2763 37.6423 35.3305 36.8775C35.3615 36.4355 35.559 36.0218 35.8832 35.7197C36.2073 35.4177 36.6339 35.2498 37.077 35.25H43.265C43.4821 35.2498 43.6915 35.3303 43.8525 35.4758C44.0136 35.6213 44.1148 35.8215 44.1365 36.0375C44.1767 36.44 44.2135 36.7603 44.2485 37.0035C44.5963 39.4306 45.309 41.7912 46.3625 44.0053C46.5287 44.3553 46.4202 44.7735 46.1052 44.9975L42.3287 47.696C44.6378 53.0763 48.9255 57.364 54.3057 59.673L57.0007 55.9035C57.1109 55.7495 57.2716 55.639 57.4549 55.5914C57.6381 55.5437 57.8323 55.5619 58.0035 55.6427C60.2173 56.6943 62.5773 57.4052 65.0035 57.7515C65.2467 57.7865 65.567 57.825 65.966 57.8635C66.1817 57.8856 66.3814 57.987 66.5266 58.148C66.6718 58.309 66.752 58.5182 66.7517 58.735H66.75Z" fill="white"/>
</g>
<defs>
<clipPath id="clip0_603_3563">
<rect width="42" height="42" fill="white" transform="translate(30 30)"/>
</clipPath>
</defs>
</svg>
