<svg width="29" height="29" viewBox="0 0 29 29" fill="none" xmlns="http://www.w3.org/2000/svg">
<rect x="0.480469" width="28.0959" height="28.0959" rx="3.9022" fill="#F24D21"/>
<path d="M21.8659 12.5737C19.2542 18.1049 18.4045 18.1049 17.8975 18.1049H12.9027C11.1533 18.1049 9.81279 17.076 9.4875 15.4826C9.47751 15.4339 8.48854 10.5796 8.23568 9.22347C8.11143 8.55853 7.79551 8.11524 6.65919 8.11524C6.1416 8.11524 5.72266 7.6963 5.72266 7.17872C5.72266 6.66113 6.1416 6.24219 6.65919 6.24219C8.54473 6.24219 9.75847 7.17872 10.0769 8.87945C10.3273 10.2212 11.3131 15.0593 11.3231 15.1086C11.5223 16.0864 12.3982 16.2324 12.9027 16.2324H17.6509C18.161 15.6843 19.3236 13.5721 20.172 11.7739C20.3931 11.3063 20.9519 11.1071 21.4189 11.3269C21.8871 11.5473 22.0869 12.1055 21.8659 12.5737ZM12.2784 18.7292C11.4161 18.7292 10.7175 19.4279 10.7175 20.2901C10.7175 21.1523 11.4161 21.851 12.2784 21.851C13.1406 21.851 13.8392 21.1523 13.8392 20.2901C13.8392 19.4279 13.1406 18.7292 12.2784 18.7292ZM17.8975 18.7292C17.0353 18.7292 16.3366 19.4279 16.3366 20.2901C16.3366 21.1523 17.0353 21.851 17.8975 21.851C18.7598 21.851 19.4584 21.1523 19.4584 20.2901C19.4584 19.4279 18.7598 18.7292 17.8975 18.7292ZM14.8775 13.637C14.94 13.6876 15.0168 13.7119 15.0936 13.7119C15.1704 13.7119 15.2459 13.6876 15.3096 13.637C15.372 13.5877 17.0753 11.9263 18.0043 10.544C18.0761 10.4366 18.083 10.2992 18.0218 10.1856C17.9625 10.0726 17.8438 10.0014 17.7158 10.0014H16.326C16.326 10.0014 16.1906 7.32232 16.1019 7.19807C15.9733 7.01451 15.442 6.88964 15.0929 6.88964C14.7427 6.88964 14.202 7.01451 14.0727 7.19807C13.9847 7.32169 13.868 10.0014 13.868 10.0014H12.46C12.3314 10.0014 12.2134 10.0726 12.1529 10.1856C12.0923 10.2992 12.0992 10.4372 12.1703 10.544C13.1 11.9269 14.8157 13.5877 14.8775 13.637Z" fill="white"/>
</svg>
