<svg width="18" height="12" viewBox="0 0 18 12" fill="none" xmlns="http://www.w3.org/2000/svg">
<path d="M1.50857 6.17296L6.50857 1.48596C6.57289 1.42715 6.6569 1.39453 6.74407 1.39453C6.83123 1.39453 6.91524 1.42715 6.97957 1.48596C7.01018 1.51407 7.03462 1.54822 7.05134 1.58626C7.06806 1.62431 7.07669 1.66541 7.07669 1.70696C7.07669 1.74852 7.06806 1.78962 7.05134 1.82766C7.03462 1.86571 7.01018 1.89986 6.97957 1.92796L2.54857 6.08196H17.0756C17.1181 6.07956 17.1607 6.08586 17.2007 6.10047C17.2407 6.11509 17.2773 6.13772 17.3082 6.16697C17.3392 6.19623 17.3638 6.23149 17.3807 6.27061C17.3976 6.30973 17.4062 6.35187 17.4062 6.39446C17.4062 6.43706 17.3976 6.4792 17.3807 6.51832C17.3638 6.55744 17.3392 6.5927 17.3082 6.62196C17.2773 6.65121 17.2407 6.67384 17.2007 6.68846C17.1607 6.70307 17.1181 6.70937 17.0756 6.70696H2.54657L6.97757 10.861C7.00818 10.8891 7.03262 10.9232 7.04934 10.9613C7.06606 10.9993 7.07469 11.0404 7.07469 11.082C7.07469 11.1235 7.06606 11.1646 7.04934 11.2027C7.03262 11.2407 7.00818 11.2749 6.97757 11.303C6.91324 11.3618 6.82923 11.3944 6.74207 11.3944C6.6549 11.3944 6.57089 11.3618 6.50657 11.303L1.50657 6.61496C1.47608 6.58672 1.45179 6.55246 1.43525 6.51434C1.4187 6.47622 1.41025 6.43508 1.41044 6.39352C1.41063 6.35197 1.41945 6.31091 1.43634 6.27294C1.45323 6.23497 1.47783 6.20093 1.50857 6.17296V6.17296Z" stroke="#FEB918" stroke-miterlimit="10"/>
</svg>
