<svg width="18" height="12" viewBox="0 0 18 12" fill="none" xmlns="http://www.w3.org/2000/svg">
<path d="M16.4914 6.17296L11.4914 1.48596C11.4271 1.42715 11.3431 1.39453 11.2559 1.39453C11.1688 1.39453 11.0848 1.42715 11.0204 1.48596C10.9898 1.51407 10.9654 1.54822 10.9487 1.58626C10.9319 1.62431 10.9233 1.66541 10.9233 1.70696C10.9233 1.74852 10.9319 1.78962 10.9487 1.82766C10.9654 1.86571 10.9898 1.89986 11.0204 1.92796L15.4514 6.08196H0.924435C0.88191 6.07956 0.839341 6.08586 0.799334 6.10047C0.759328 6.11509 0.722726 6.13772 0.691769 6.16697C0.660812 6.19623 0.636152 6.23149 0.619297 6.27061C0.602443 6.30973 0.59375 6.35187 0.59375 6.39446C0.59375 6.43706 0.602443 6.4792 0.619297 6.51832C0.636152 6.55744 0.660812 6.5927 0.691769 6.62196C0.722726 6.65121 0.759328 6.67384 0.799334 6.68846C0.839341 6.70307 0.88191 6.70937 0.924435 6.70696H15.4534L11.0224 10.861C10.9918 10.8891 10.9674 10.9232 10.9507 10.9613C10.9339 10.9993 10.9253 11.0404 10.9253 11.082C10.9253 11.1235 10.9339 11.1646 10.9507 11.2027C10.9674 11.2407 10.9918 11.2749 11.0224 11.303C11.0868 11.3618 11.1708 11.3944 11.2579 11.3944C11.3451 11.3944 11.4291 11.3618 11.4934 11.303L16.4934 6.61496C16.5239 6.58672 16.5482 6.55246 16.5648 6.51434C16.5813 6.47622 16.5897 6.43508 16.5896 6.39352C16.5894 6.35197 16.5806 6.31091 16.5637 6.27294C16.5468 6.23497 16.5222 6.20093 16.4914 6.17296V6.17296Z" stroke="#FEB918" stroke-miterlimit="10"/>
</svg>
