<svg width="140" height="46" viewBox="0 0 140 46" fill="none" xmlns="http://www.w3.org/2000/svg">
<path d="M140 39.2759C140 40.9034 139.35 42.4643 138.192 43.6153C137.035 44.7663 135.465 45.4131 133.828 45.4134H6.52676C4.88953 45.4132 3.31943 44.7665 2.16176 43.6155C1.00409 42.4646 0.353658 40.9036 0.353516 39.2759V6.13702C0.353658 4.50938 1.0041 2.94844 2.16179 1.79755C3.31947 0.646663 4.88958 7.05645e-05 6.52676 0H133.828C135.465 0.000282281 137.035 0.646988 138.192 1.79788C139.35 2.94877 140 4.50959 140 6.13702V39.2759Z" fill="#3C3C3C"/>
<path d="M36.7708 30.0151C36.2129 31.3425 35.5282 32.6136 34.7261 33.8109C33.3976 35.8211 31.5261 38.3241 29.207 38.3454C27.1459 38.3643 26.6165 37.0117 23.8196 37.0269C21.0228 37.042 20.4387 38.3691 18.3771 38.3502C16.058 38.3289 14.2842 36.0686 12.956 34.0587C9.24211 28.4382 8.85426 21.8421 11.1444 18.3356C12.7724 15.8435 15.3396 14.3849 17.7543 14.3849C20.2125 14.3849 21.758 15.7253 23.7904 15.7253C25.7618 15.7253 26.9637 14.3828 29.8055 14.3828C31.9538 14.3828 34.2301 15.5454 35.8521 17.557C30.5373 20.4517 31.4011 27.998 36.7708 30.0151Z" fill="white"/>
<path d="M27.649 12.1392C28.6808 10.8217 29.4657 8.96048 29.1811 7.05859C27.4948 7.17409 25.5213 8.2412 24.369 9.63188C23.3235 10.8951 22.4602 12.768 22.7964 14.5876C24.6377 14.6443 26.5427 13.5511 27.649 12.1392Z" fill="white"/>
<path d="M48.0816 18.2539L42.7617 33.8213H45.1975L46.7856 29.0409H51.9366L53.5694 33.8213H56.0729L50.73 18.2539H48.0816ZM49.344 20.8136C49.5236 21.5084 49.7174 22.2301 49.9666 23.0101L51.4002 27.138H47.3198L48.7337 22.9829C48.9497 22.3094 49.1534 21.5819 49.344 20.8136Z" fill="white"/>
<path d="M62.9589 22.2892C61.3452 22.2892 60.0528 22.9084 59.1923 24.0857L59.0978 22.5372H56.9297L56.9425 22.7352C57.0065 23.6998 57.033 24.7616 57.033 26.2859V38.2861H59.4024V32.6861C59.8074 33.1384 60.3075 33.4967 60.8671 33.7359C61.4267 33.975 62.0324 34.089 62.6412 34.0698C63.3123 34.0758 63.9774 33.9441 64.5951 33.6832C65.2128 33.4222 65.7697 33.0375 66.2312 32.553C67.2692 31.462 67.8163 29.8951 67.8163 28.0225C67.8163 26.3676 67.3409 24.9356 66.44 23.8856C66.0134 23.3815 65.4803 22.9771 64.8786 22.7012C64.277 22.4253 63.6215 22.2846 62.9589 22.2892ZM62.3687 24.2392C64.4809 24.2392 65.426 26.1845 65.426 28.1119C65.426 30.5979 64.2199 32.1422 62.2788 32.1422C61.6343 32.1419 61.0087 31.9262 60.5024 31.5298C59.9961 31.1333 59.6387 30.5791 59.4875 29.9563C59.4269 29.7068 59.3986 29.4506 59.4035 29.1939V27.2998C59.4124 27.1042 59.4375 26.9097 59.4787 26.7183C59.4905 26.6539 59.5033 26.5895 59.5127 26.5272C59.6671 25.8855 60.0312 25.3128 60.548 24.8988C61.0648 24.4847 61.7051 24.2528 62.3687 24.2392Z" fill="white"/>
<path d="M75.1594 22.2892C73.5461 22.2892 72.2538 22.9084 71.3925 24.0857L71.298 22.5372H69.1328L69.1449 22.7352C69.2091 23.7009 69.2361 24.7616 69.2361 26.2859V38.2861H71.6055V32.6861C72.0105 33.1385 72.5105 33.4969 73.0701 33.736C73.6298 33.9752 74.2355 34.0891 74.8443 34.0698C75.5157 34.0756 76.1811 33.944 76.799 33.683C77.417 33.422 77.9742 33.0374 78.4362 32.553C79.4723 31.462 80.0205 29.8951 80.0205 28.0225C80.0205 26.3676 79.5441 24.9356 78.6431 23.8856C78.2163 23.381 77.6828 22.9764 77.0806 22.7004C76.4785 22.4245 75.8224 22.2841 75.1594 22.2892ZM74.5705 24.2392C76.6816 24.2392 77.627 26.1845 77.627 28.1119C77.627 30.5979 76.4201 32.1422 74.48 32.1422C73.8356 32.142 73.2099 31.9263 72.7037 31.5298C72.1974 31.1334 71.8399 30.5792 71.6888 29.9563C71.6283 29.7068 71.6003 29.4506 71.6053 29.1939V27.2998C71.6139 27.1036 71.6392 26.9085 71.6807 26.7165C71.6925 26.6529 71.7043 26.5895 71.715 26.5272C71.869 25.8856 72.2329 25.3128 72.7495 24.8988C73.2661 24.4847 73.9063 24.2527 74.5697 24.2392H74.5705Z" fill="white"/>
<path d="M90.443 24.8485C88.2318 23.997 87.5232 23.3277 87.5232 22.0908C87.5232 21.0493 88.3557 19.9987 90.2163 19.9987C91.1895 19.9759 92.1507 20.2158 92.9976 20.693L93.1983 20.8162L93.8675 18.8504L93.7353 18.7735C93.3383 18.5423 92.2072 18.0039 90.285 18.0039C87.2636 18.0039 85.1533 19.7773 85.1533 22.3149C85.1533 24.3621 86.4748 25.7929 89.3118 26.8182C91.3225 27.5655 92.0709 28.3308 92.0709 29.643C92.0709 31.1281 90.9162 32.0497 89.0594 32.0497C87.8532 32.0508 86.6705 31.7174 85.6445 31.0869L85.4389 30.956L84.8029 32.9672L84.9199 33.0441C85.8144 33.6378 87.4978 34.0673 88.9239 34.0673C92.996 34.0673 94.4398 31.5989 94.4398 29.4852C94.4393 27.3063 93.2819 25.9638 90.443 24.8485Z" fill="white"/>
<path d="M98.7046 19.8555L96.3807 20.5806V22.5376H94.6797V24.42H96.3807V30.1866C96.3807 31.5805 96.6484 32.5576 97.2011 33.175C97.4992 33.475 97.8572 33.7096 98.252 33.8637C98.6468 34.0178 99.0697 34.088 99.4934 34.0697C100.115 34.0781 100.734 33.9831 101.325 33.7887L101.459 33.7418L101.345 31.8559L101.118 31.9254C100.759 32.0245 100.388 32.0672 100.016 32.052C99.0978 32.052 98.7057 31.4746 98.7057 30.1188V24.42H101.563V22.5376H98.7046V19.8555Z" fill="white"/>
<path d="M107.435 22.2874C104.119 22.2874 101.805 24.7473 101.805 28.2677C101.805 31.6829 104.045 34.0689 107.253 34.0689H107.275C109.987 34.0689 112.905 32.1906 112.905 28.0662C112.905 26.3897 112.384 24.9487 111.395 23.9C110.885 23.3709 110.269 22.954 109.587 22.6762C108.905 22.3985 108.171 22.266 107.435 22.2874ZM107.366 24.147C109.497 24.147 110.468 26.2128 110.468 28.133C110.468 30.4942 109.144 32.2079 107.321 32.2079H107.298C105.501 32.2079 104.197 30.5227 104.197 28.2011C104.196 26.1835 105.176 24.147 107.365 24.147H107.366Z" fill="white"/>
<path d="M120.161 22.3985L120.019 22.3625C119.827 22.3127 119.629 22.288 119.43 22.2891C118.808 22.3022 118.2 22.4862 117.676 22.8209C117.152 23.1555 116.731 23.6278 116.459 24.1854L116.39 22.5371H114.264L114.277 22.7351C114.34 23.6665 114.367 24.7142 114.367 26.1269L114.345 33.8217H116.714V27.8186C116.713 27.5131 116.734 27.2078 116.779 26.9056C117.047 25.4638 118.025 24.5319 119.272 24.5319C119.484 24.5339 119.697 24.5471 119.908 24.5713L120.161 24.5979L120.161 22.3985Z" fill="white"/>
<path d="M125.488 22.2656C122.334 22.2656 120.131 24.7711 120.131 28.3595C120.131 31.8142 122.322 34.0471 125.715 34.0471C127.002 34.0755 128.281 33.8316 129.466 33.3315L129.608 33.2676L129.153 31.5113L128.956 31.5911C128.014 31.9693 127.003 32.149 125.987 32.1188C124.958 32.1188 122.584 31.7814 122.439 28.7036L130.086 28.7265L130.117 28.5761C130.172 28.2514 130.195 27.9223 130.188 27.5931C130.187 25.1356 128.956 22.2656 125.488 22.2656ZM125.33 24.0576C125.65 24.0432 125.97 24.0943 126.269 24.2078C126.568 24.3213 126.841 24.4947 127.07 24.7173C127.752 25.407 127.871 26.4225 127.886 26.91H122.482C122.702 25.5505 123.558 24.0581 125.33 24.0581V24.0576Z" fill="white"/>
<path d="M42.7617 7.6176C43.515 7.51702 44.2742 7.46599 45.0342 7.46484C46.5618 7.46484 47.6494 7.77088 48.3702 8.37229C49.1154 8.97343 49.5434 9.83589 49.5434 11.0286C49.5637 11.5625 49.4684 12.0946 49.2639 12.5887C49.0594 13.0829 48.7505 13.5276 48.3581 13.8927C47.576 14.5814 46.3051 14.9534 44.7047 14.9534C44.0559 14.9623 43.4071 14.933 42.7617 14.8656V7.6176ZM43.8372 14.1442C44.1941 14.184 44.5534 14.1987 44.9124 14.1881C47.1849 14.1985 48.4189 13.051 48.4189 11.0616C48.4312 9.30126 47.3314 8.21901 45.0835 8.21901C44.6659 8.21335 44.2487 8.24621 43.8372 8.31719V14.1442Z" fill="white"/>
<path d="M53.3522 15.0082C51.7636 15.0082 50.5176 13.9586 50.5176 12.2861C50.5176 10.5152 51.8249 9.47656 53.4499 9.47656C55.1485 9.47656 56.2965 10.5804 56.2965 12.1877C56.2965 14.1553 54.7708 15.0085 53.3648 15.0085L53.3522 15.0082ZM53.3889 14.2865C54.4151 14.2865 55.1852 13.423 55.1852 12.2201C55.1852 11.3239 54.6841 10.1977 53.4135 10.1977C52.1554 10.1977 51.6049 11.2475 51.6049 12.2532C51.6049 13.4118 52.338 14.2865 53.3765 14.2865H53.3889Z" fill="white"/>
<path d="M58.0005 9.59375L58.7947 12.2724C58.9531 12.8626 59.1124 13.4201 59.223 13.9667H59.2596C59.3935 13.4308 59.5894 12.8626 59.7851 12.2833L60.7503 9.59375H61.6547L62.5712 12.2391C62.7907 12.8626 62.962 13.4308 63.0964 13.9667H63.1331C63.2487 13.386 63.3997 12.8128 63.5852 12.2503L64.4278 9.59375H65.4912L63.5852 14.8848H62.6076L61.7037 12.3597C61.4976 11.7862 61.322 11.2024 61.1777 10.6105H61.1537C61.0119 11.2079 60.8322 11.7958 60.6156 12.3706L59.663 14.8848H58.6855L56.9004 9.59375H58.0005Z" fill="white"/>
<path d="M66.5649 11.0274C66.5649 10.4685 66.5526 10.0326 66.5156 9.59516H67.4691L67.5298 10.4592H67.5545C67.7681 10.1425 68.0599 9.8856 68.4021 9.71319C68.7442 9.54079 69.1252 9.45863 69.5084 9.47461C70.327 9.47461 71.5962 9.91157 71.5962 11.7264V14.8857H70.5232V11.8363C70.5232 10.9835 70.1682 10.2623 69.154 10.2623C68.8415 10.2609 68.536 10.3544 68.2784 10.5303C68.0207 10.7063 67.8234 10.9563 67.7126 11.2469C67.6618 11.3908 67.6368 11.5425 67.639 11.695V14.887H66.5641L66.5649 11.0274Z" fill="white"/>
<path d="M73.3477 7.125H74.4229V14.8866H73.3477V7.125Z" fill="white"/>
<path d="M78.6136 15.0082C77.0256 15.0082 75.7793 13.9586 75.7793 12.2861C75.7793 10.5152 77.0858 9.47656 78.7116 9.47656C80.4094 9.47656 81.558 10.5804 81.558 12.1877C81.558 14.1553 80.0307 15.0085 78.6257 15.0085L78.6136 15.0082ZM78.6498 14.2865C79.6763 14.2865 80.4464 13.423 80.4464 12.2201C80.4464 11.3239 79.9453 10.1977 78.6749 10.1977C77.4169 10.1977 76.866 11.2475 76.866 12.2532C76.866 13.4118 77.5992 14.2865 78.638 14.2865H78.6498Z" fill="white"/>
<path d="M87.0796 13.6202C87.0743 14.0444 87.103 14.4683 87.1655 14.8879H86.1998L86.1021 14.2226H86.066C85.8434 14.4805 85.5652 14.6851 85.2522 14.8214C84.9391 14.9576 84.5991 15.0219 84.2576 15.0095C83.0606 15.0095 82.4492 14.2554 82.4492 13.4898C82.4492 12.2109 83.7196 11.511 86.0044 11.5206V11.4115C86.0044 10.9742 85.8706 10.1762 84.6607 10.1874C84.1174 10.1803 83.5819 10.316 83.1082 10.5807L82.8636 9.93588C83.4679 9.62653 84.1392 9.46894 84.8189 9.47685C86.639 9.47685 87.0788 10.5807 87.0788 11.6414L87.0796 13.6202ZM86.0293 12.188C84.8564 12.1661 83.5244 12.3519 83.5244 13.3793C83.5244 14.0135 83.9886 14.298 84.5263 14.298C84.8307 14.3158 85.1332 14.2404 85.3931 14.082C85.6531 13.9236 85.8579 13.6898 85.98 13.4121C86.0145 13.3138 86.0311 13.2101 86.0293 13.106V12.188Z" fill="white"/>
<path d="M93.9116 7.125V13.5201C93.9116 13.9901 93.9247 14.5258 93.9606 14.8866H92.997L92.9483 13.9685H92.9237C92.5939 14.5588 91.8851 15.0064 90.9199 15.0064C89.49 15.0064 88.377 13.9241 88.377 12.3168C88.3647 10.5458 89.5992 9.47475 91.027 9.47475C91.944 9.47475 92.5548 9.85768 92.8115 10.2731H92.8356V7.125H93.9116ZM92.8367 11.7492C92.8386 11.6093 92.8222 11.4697 92.7877 11.3341C92.6893 11.0045 92.4832 10.717 92.2021 10.517C91.9209 10.317 91.5807 10.2159 91.2352 10.2297C90.123 10.2297 89.4632 11.1041 89.4632 12.2633C89.4632 13.3453 90.0623 14.2307 91.2106 14.2307C91.5639 14.2395 91.9103 14.1319 92.1956 13.9244C92.4809 13.717 92.6891 13.4215 92.7877 13.084C92.8235 12.9485 92.8399 12.8087 92.8367 12.6686V11.7492Z" fill="white"/>
<path d="M100.694 15.0082C99.1056 15.0082 97.8594 13.9586 97.8594 12.2861C97.8594 10.5152 99.1675 9.47656 100.792 9.47656C102.491 9.47656 103.639 10.5804 103.639 12.1877C103.639 14.1553 102.111 15.0085 100.707 15.0085L100.694 15.0082ZM100.731 14.2865C101.757 14.2865 102.527 13.423 102.527 12.2201C102.527 11.3239 102.026 10.1977 100.756 10.1977C99.4975 10.1977 98.9472 11.2475 98.9472 12.2532C98.9472 13.4118 99.6803 14.2865 100.719 14.2865H100.731Z" fill="white"/>
<path d="M104.995 11.0274C104.995 10.4685 104.982 10.0326 104.945 9.59516H105.898L105.96 10.4592H105.984C106.198 10.1425 106.49 9.8856 106.832 9.71319C107.174 9.54079 107.555 9.45863 107.938 9.47461C108.757 9.47461 110.028 9.91157 110.028 11.7264V14.8857H108.952V11.8363C108.952 10.9835 108.598 10.2623 107.584 10.2623C107.271 10.261 106.966 10.3546 106.708 10.5305C106.45 10.7065 106.253 10.9564 106.142 11.2469C106.091 11.3909 106.066 11.5425 106.069 11.695V14.887H104.994L104.995 11.0274Z" fill="white"/>
<path d="M115.661 8.32812V9.59586H117.2V10.3282H115.661V13.1817C115.661 13.8374 115.869 14.2094 116.467 14.2094C116.677 14.217 116.887 14.1949 117.09 14.1437L117.139 14.876C116.83 14.9669 116.508 15.0112 116.186 15.0075C115.761 15.0287 115.344 14.8835 115.025 14.603C114.731 14.3079 114.61 13.8374 114.61 13.2141V10.3282H113.693V9.59586H114.61V8.62297L115.661 8.32812Z" fill="white"/>
<path d="M118.41 7.125H119.485V10.4266H119.51C119.696 10.132 119.963 9.89669 120.28 9.74883C120.617 9.56672 120.996 9.47269 121.38 9.47555C122.173 9.47555 123.444 9.9125 123.444 11.7375V14.8858H122.37V11.8468C122.37 10.9831 122.016 10.2728 121.002 10.2728C120.692 10.2711 120.389 10.362 120.132 10.5337C119.875 10.7054 119.675 10.9499 119.56 11.2356C119.501 11.3813 119.476 11.5381 119.486 11.6946V14.8866H118.411L118.41 7.125Z" fill="white"/>
<path d="M125.803 12.4064C125.828 13.7074 126.745 14.2426 127.819 14.2426C128.377 14.257 128.933 14.1679 129.457 13.9797L129.653 14.6574C129.021 14.8953 128.348 15.0104 127.672 14.9965C125.863 14.9965 124.764 13.9139 124.764 12.3292C124.764 10.7222 125.827 9.46484 127.549 9.46484C129.48 9.46484 129.981 10.9843 129.981 11.9578C129.985 12.1115 129.973 12.2653 129.945 12.4165L125.803 12.4064ZM128.944 11.7177C128.956 11.1166 128.663 10.1543 127.465 10.1543C126.365 10.1543 125.901 11.0509 125.816 11.7177H128.944Z" fill="white"/>
</svg>
