<svg width="140" height="46" viewBox="0 0 140 46" fill="none" xmlns="http://www.w3.org/2000/svg">
<path d="M139.646 39.2756C139.647 40.9029 138.997 42.4637 137.84 43.6147C136.682 44.7657 135.113 45.4127 133.476 45.4134H6.17335C4.53604 45.4132 2.96587 44.7665 1.80818 43.6154C0.650482 42.4644 7.23877e-05 40.9033 0 39.2756V6.13729C0.000144798 4.50963 0.650595 2.94867 1.80829 1.79773C2.96599 0.646798 4.53612 0.000143952 6.17335 0H133.475C135.111 0.000647751 136.681 0.647558 137.838 1.79847C138.995 2.94938 139.645 4.51006 139.645 6.13729L139.646 39.2756Z" fill="#3C3C3C"/>
<path d="M10.4766 8.74609V39.4991L26.0755 24.1226L10.4766 8.74609Z" fill="url(#paint0_linear_603_3446)"/>
<path d="M30.2651 19.9913L23.9683 16.3772L10.4766 8.63281V8.74465L26.0755 24.1217L30.2651 19.9913Z" fill="url(#paint1_linear_603_3446)"/>
<path d="M10.4766 39.4976V39.6094L23.9683 31.8647L30.2648 28.2509L26.0755 24.1211L10.4766 39.4976Z" fill="url(#paint2_linear_603_3446)"/>
<path d="M30.2657 19.9922L26.0762 24.1225L30.2657 28.2523L37.4618 24.1223L30.2657 19.9922Z" fill="url(#paint3_linear_603_3446)"/>
<path d="M108.683 30.1294C108.131 30.1364 107.584 30.0266 107.078 29.8072C106.591 29.5897 106.17 29.2477 105.859 28.816H105.762C105.825 29.3085 105.858 29.8044 105.86 30.301V33.981H104.498V21.0224H105.606L105.794 22.2466H105.86C106.168 21.7933 106.59 21.4277 107.084 21.1858C107.586 20.9606 108.133 20.8493 108.684 20.8601C109.877 20.8601 110.798 21.2654 111.446 22.0761C112.094 22.8868 112.419 24.0238 112.419 25.4871C112.419 26.9561 112.089 28.0974 111.43 28.911C111.101 29.314 110.68 29.6342 110.203 29.8459C109.726 30.0575 109.205 30.1546 108.683 30.1294ZM108.486 22.0099C107.566 22.0099 106.902 22.2632 106.493 22.7699C106.083 23.2765 105.873 24.0818 105.86 25.1856V25.4874C105.86 26.7441 106.071 27.6432 106.493 28.1846C106.914 28.726 107.59 28.9966 108.52 28.9962C108.88 29.0078 109.236 28.9278 109.556 28.7636C109.876 28.5994 110.148 28.3565 110.347 28.0581C110.787 27.4328 111.007 26.5703 111.007 25.4709C111.007 24.3558 110.787 23.5004 110.347 22.9045C110.136 22.6135 109.855 22.3794 109.53 22.2232C109.205 22.067 108.846 21.9937 108.486 22.0099H108.486Z" fill="#F9F9F9"/>
<path d="M115.574 29.9678H114.211V17.2695H115.574V29.9678Z" fill="#F9F9F9"/>
<path d="M123.406 29.9688L123.135 28.6958H123.069C122.719 29.1754 122.259 29.5655 121.727 29.8342C121.197 30.0491 120.628 30.1508 120.057 30.1328C119.165 30.1328 118.466 29.9043 117.96 29.4474C117.699 29.1962 117.496 28.8917 117.365 28.5551C117.234 28.2184 117.178 27.8575 117.2 27.4972C117.2 25.6913 118.653 24.7446 121.559 24.6572L123.086 24.6081V24.0536C123.086 23.3516 122.934 22.8335 122.63 22.4991C122.326 22.1647 121.841 21.9973 121.173 21.9969C120.284 22.0329 119.414 22.2672 118.629 22.6826L118.21 21.646C118.671 21.3998 119.16 21.2108 119.667 21.083C120.186 20.9482 120.719 20.8796 121.255 20.8789C122.328 20.8789 123.123 21.1155 123.64 21.5887C124.157 22.0619 124.416 22.8209 124.415 23.8657V29.9694L123.406 29.9688ZM120.328 29.0145C121.06 29.0558 121.779 28.8063 122.327 28.321C122.577 28.0651 122.771 27.7602 122.896 27.4258C123.021 27.0913 123.075 26.7346 123.053 26.3783V25.5706L121.69 25.6273C120.607 25.6662 119.826 25.8338 119.347 26.13C119.112 26.2743 118.921 26.4794 118.795 26.7232C118.668 26.9671 118.611 27.2405 118.629 27.5143C118.615 27.722 118.647 27.9302 118.725 28.1236C118.802 28.317 118.922 28.4908 119.076 28.632C119.433 28.9066 119.878 29.0426 120.328 29.0145Z" fill="#F9F9F9"/>
<path d="M125.207 21.0234H126.667L128.638 26.1239C128.963 26.9454 129.232 27.788 129.442 28.6457H129.508C129.579 28.3678 129.728 27.8929 129.955 27.221C130.182 26.5491 130.925 24.4833 132.184 21.0234H133.645L129.779 31.2077C129.397 32.2142 128.949 32.9284 128.436 33.3504C127.905 33.7786 127.236 34.0027 126.553 33.982C126.138 33.9822 125.725 33.9358 125.321 33.8439V32.7582C125.653 32.8265 125.992 32.8594 126.331 32.8561C127.267 32.8561 127.935 32.3337 128.334 31.2889L128.834 30.0162L125.207 21.0234Z" fill="#F9F9F9"/>
<path d="M83.4385 21.8561C83.845 22.1429 84.1778 22.5209 84.4099 22.9595C84.6419 23.3981 84.7667 23.8849 84.7742 24.3804C84.7742 25.7647 83.9838 26.4199 83.1934 27.0363C82.9476 27.2793 82.6664 27.5423 82.6664 27.954C82.6777 28.1171 82.7281 28.2752 82.8133 28.4151C82.8985 28.5549 83.0161 28.6725 83.1562 28.758L83.8339 29.2808C84.6617 29.9732 85.4136 30.6108 85.4136 31.9009C85.4136 33.6592 83.7012 35.436 80.4653 35.436C77.7364 35.436 76.4199 34.1456 76.4199 32.7602C76.4199 32.0871 76.7571 31.1336 77.8689 30.4781C79.0344 29.7672 80.6163 29.6746 81.4627 29.6171C81.1984 29.2808 80.8978 28.9255 80.8978 28.3465C80.9043 28.0919 80.9688 27.8422 81.0862 27.6158C80.8784 27.6351 80.6717 27.6536 80.4833 27.6536C78.4903 27.6536 77.3602 26.1756 77.3602 24.7172C77.3698 24.238 77.4822 23.7662 77.69 23.3337C77.8978 22.9011 78.1962 22.5176 78.5651 22.2089C79.6381 21.3298 80.9177 21.1797 81.9345 21.1797H85.8114L84.6044 21.8561H83.4385ZM82.1021 30.1618C81.9587 30.1447 81.8143 30.1382 81.6699 30.1423C81.0007 30.1548 80.3361 30.2559 79.6938 30.443C79.2801 30.5915 78.0753 31.0402 78.0753 32.3702C78.0753 33.7002 79.3743 34.6532 81.3879 34.6532C83.1934 34.6532 84.1539 33.7911 84.1539 32.6321C84.1539 31.6745 83.5341 31.1716 82.1021 30.1618ZM82.6481 26.6061C82.98 26.2303 83.1487 25.7391 83.1175 25.24C83.1175 23.8934 82.3088 21.7985 80.7476 21.7985C80.4964 21.8018 80.2487 21.8587 80.0214 21.9652C79.7941 22.0717 79.5925 22.2255 79.43 22.416C79.1364 22.8166 78.9901 23.3053 79.0158 23.8003C79.0158 25.0535 79.7497 27.13 81.3688 27.13C81.8458 27.1189 82.3016 26.9322 82.6481 26.6061Z" fill="#F9F9F9"/>
<path d="M71.5913 29.8612C70.9965 29.8812 70.4038 29.782 69.8484 29.5694C69.293 29.3569 68.7863 29.0353 68.3586 28.6239C67.9308 28.2125 67.5908 27.7197 67.3587 27.1748C67.1267 26.63 67.0073 26.0443 67.0078 25.4526C67.0078 23.006 69.0178 20.9151 71.8742 20.9151C72.4626 20.9022 73.0476 21.0069 73.5945 21.2231C74.1413 21.4393 74.6389 21.7625 75.0577 22.1737C75.4764 22.5848 75.8078 23.0754 76.032 23.6164C76.2563 24.1573 76.369 24.7375 76.3633 25.3226C76.3633 27.5255 74.6544 29.8612 71.5913 29.8612ZM73.9393 28.3485C74.3494 27.7367 74.5475 27.0087 74.5037 26.2748C74.5037 24.6307 73.7149 21.4935 71.3849 21.4935C70.7634 21.4993 70.1642 21.7247 69.6946 22.1295C68.9618 22.7826 68.8297 23.6045 68.8297 24.4095C68.8297 26.2571 69.7503 29.3004 72.0241 29.3004C72.3957 29.3 72.7621 29.2138 73.0945 29.0486C73.4268 28.8835 73.716 28.6438 73.9393 28.3485Z" fill="#F9F9F9"/>
<path d="M61.4102 29.8612C60.8154 29.8813 60.2226 29.7821 59.6671 29.5695C59.1117 29.357 58.605 29.0354 58.1772 28.624C57.7494 28.2126 57.4093 27.7198 57.1772 27.1749C56.9451 26.6301 56.8257 26.0443 56.8262 25.4526C56.8262 23.006 58.8367 20.9151 61.6926 20.9151C62.281 20.9021 62.866 21.0068 63.4129 21.223C63.9598 21.4392 64.4574 21.7625 64.8762 22.1736C65.295 22.5847 65.6264 23.0754 65.8507 23.6163C66.075 24.1573 66.1876 24.7375 66.1819 25.3226C66.1819 27.5255 64.4728 29.8612 61.4102 29.8612ZM63.7582 28.3485C64.1678 27.7365 64.3657 27.0086 64.322 26.2748C64.322 24.6307 63.5327 21.4936 61.203 21.4936C60.5814 21.4993 59.9821 21.7247 59.5125 22.1295C58.7799 22.7826 58.6483 23.6045 58.6483 24.4095C58.6483 26.2571 59.5684 29.3004 61.8427 29.3004C62.2144 29.2999 62.5809 29.2137 62.9134 29.0485C63.2458 28.8833 63.5352 28.6437 63.7588 28.3485H63.7582Z" fill="#F9F9F9"/>
<path d="M55.3901 29.5685L52.6891 30.1881C51.6604 30.375 50.6185 30.4815 49.573 30.5065C44.3583 30.5065 42.377 26.6946 42.377 23.7088C42.377 20.0665 45.1907 16.6875 50.0077 16.6875C50.9842 16.6893 51.956 16.8219 52.8968 17.0816C53.7942 17.3103 54.6401 17.7053 55.3901 18.2458L53.8221 19.7291L53.1614 19.8784L53.6335 19.1274C52.9916 18.5083 51.8198 17.3631 49.5927 17.3631C46.6083 17.3631 44.3602 19.616 44.3602 22.903C44.3602 26.4316 46.9294 29.7558 51.046 29.7558C51.8707 29.776 52.6897 29.6157 53.4451 29.2862V26.2635L50.5936 26.4136L52.1037 25.6053H56.1081L55.6167 26.0746C55.566 26.1086 55.523 26.1527 55.4904 26.2041C55.4578 26.2555 55.4363 26.3131 55.4272 26.3732C55.4076 26.5426 55.3898 27.0876 55.3898 27.2752L55.3901 29.5685Z" fill="#F9F9F9"/>
<path d="M89.4091 29.0278C88.7855 28.9714 88.655 28.8592 88.655 28.1261V17.4986C88.6588 17.4581 88.6616 17.4171 88.6654 17.3775C88.7416 16.7206 88.93 16.608 89.5164 16.2695H86.8135L85.3965 16.9457H86.8405V16.9541V16.9473V28.5398C86.8405 28.9144 86.766 28.9714 86.331 29.5343H89.6745L90.3732 29.1223C90.0524 29.0837 89.7307 29.0653 89.4091 29.0278Z" fill="#F9F9F9"/>
<path d="M97.0911 29.1985C96.8855 29.3106 96.6791 29.4428 96.4735 29.5343C95.8989 29.7807 95.2778 29.9016 94.6522 29.8887C93.7623 29.9285 92.8845 29.6724 92.1573 29.161C90.8265 28.2281 90.2461 26.6245 90.2461 25.2253C90.2461 22.3354 92.6097 20.9183 94.5416 20.9183C95.2224 20.9096 95.892 21.0906 96.4746 21.4408C97.1303 21.8693 97.5986 22.5287 97.7851 23.2865L93.3782 25.0587L91.9337 25.1705C92.4019 27.5387 94.0149 28.9162 95.7975 28.9162C96.6028 28.8915 97.3893 28.6676 98.0857 28.2648L97.0911 29.1985ZM95.3287 23.641C95.6836 23.5107 95.872 23.3986 95.872 23.1377C95.872 22.3924 95.0284 21.5341 94.0155 21.5341C93.2644 21.5341 91.8586 22.1126 91.8586 24.126C91.8586 24.443 91.896 24.7774 91.9156 25.1151L95.3287 23.641Z" fill="#F9F9F9"/>
<path d="M98.9034 21.0494V22.2798H98.7533V21.0494H98.3438V20.9219H99.3127V21.0494H98.9034Z" fill="#F9F9F9"/>
<path d="M100.59 22.279V21.0372H100.583L100.2 22.279H100.083L99.6984 21.0372H99.6951V22.279H99.5586V20.9219H99.7926L100.141 22.0195H100.145L100.488 20.9219H100.725V22.279H100.59Z" fill="#F9F9F9"/>
<path d="M46.129 13.0345H45.1906C45.135 12.6637 45.0457 12.2986 44.9236 11.9439H43.5686C43.4403 12.2974 43.348 12.6627 43.2928 13.0345H42.4102C42.4102 12.9589 42.6384 12.3368 43.0949 11.1684C43.3682 10.5417 43.597 9.89673 43.7799 9.23828H44.8884C45.0554 9.8845 45.2625 10.5198 45.5087 11.1405C45.7533 11.7589 45.9604 12.3914 46.129 13.0345ZM44.774 11.3872C44.5788 10.8537 44.4114 10.3106 44.2724 9.75997H44.2255C44.2255 9.83597 44.0526 10.3784 43.7067 11.3872H44.774Z" fill="#F7F8F8"/>
<path d="M49.9108 13.0353H49.1862C49.1862 12.9555 48.9174 12.5347 48.3797 11.7729C47.8167 10.97 47.4961 10.4208 47.4178 10.1253H47.3709C47.4172 10.5085 47.4417 10.894 47.4443 11.28C47.4443 11.76 47.458 12.3452 47.4853 13.0353H46.7637C46.7932 12.4327 46.8078 11.7708 46.8076 11.0495C46.8076 10.34 46.793 9.73653 46.7637 9.23909H47.6349C47.6349 9.34187 47.8763 9.75291 48.3592 10.4722C48.7177 10.9521 49.0151 11.4741 49.2449 12.0264H49.2889C49.2448 11.6389 49.2214 11.2493 49.2187 10.8593C49.2187 10.3327 49.205 9.79236 49.1775 9.23828H49.9108C49.8833 9.72034 49.8696 10.3238 49.8696 11.0487C49.8703 11.7803 49.8841 12.4425 49.9108 13.0353Z" fill="#F7F8F8"/>
<path d="M54.1599 11.0031C54.1677 11.5342 53.9774 12.0494 53.6259 12.4493C53.4394 12.6576 53.2081 12.8214 52.9492 12.9284C52.6902 13.0355 52.4103 13.0831 52.1303 13.0676C51.8409 13.0676 51.442 13.056 50.9336 13.0326C50.9589 12.4456 50.9716 11.7837 50.9718 11.0468C50.9718 10.3395 50.9591 9.73601 50.9336 9.2364H51.4469C51.531 9.2364 51.6561 9.23342 51.8223 9.22745C51.9885 9.22148 52.0969 9.21858 52.1477 9.21876C52.8534 9.21876 53.3652 9.39374 53.6832 9.7437C53.9986 10.0873 54.1693 10.5381 54.1599 11.0031ZM53.3591 11.1285C53.3697 10.7849 53.2531 10.4493 53.0315 10.1853C52.9037 10.051 52.7473 9.94688 52.5737 9.88056C52.4001 9.81424 52.2138 9.78742 52.0284 9.80207C51.9126 9.8047 51.797 9.81375 51.6822 9.8292C51.7019 10.2183 51.7117 10.6245 51.7117 11.0479C51.7117 11.5126 51.7215 11.9733 51.7409 12.43C51.8668 12.4552 51.9948 12.468 52.1232 12.468C52.2988 12.4816 52.4751 12.4533 52.6375 12.3856C52.8 12.3178 52.9438 12.2126 53.0572 12.0785C53.2636 11.8053 53.3701 11.4701 53.3591 11.1285Z" fill="#F7F8F8"/>
<path d="M58.0806 13.0326H57.2124C57.0905 12.5886 56.9152 12.1608 56.6904 11.7585C56.6197 11.6739 56.5293 11.6077 56.4272 11.5655C56.325 11.5234 56.2141 11.5065 56.1039 11.5164C55.9903 11.5164 55.8818 11.5174 55.7782 11.5194C55.7782 12.0192 55.7873 12.5236 55.8055 13.0326H54.9902C55.0157 12.4456 55.0284 11.7837 55.0282 11.0468C55.0282 10.3395 55.0155 9.73601 54.9902 9.2364H55.4975C55.5561 9.2364 55.6788 9.23342 55.8656 9.22745C56.0523 9.22148 56.2252 9.21858 56.3843 9.21876C57.2816 9.21876 57.7304 9.52394 57.7306 10.1343C57.7349 10.3641 57.6615 10.5888 57.5221 10.7722C57.3828 10.9557 57.1856 11.0874 56.962 11.1462V11.1899C57.1888 11.2693 57.3751 11.4341 57.4808 11.6489C57.7149 12.0947 57.9154 12.5572 58.0806 13.0326ZM56.9809 10.3501C56.9809 9.96338 56.7306 9.76994 56.23 9.76976C56.0667 9.76792 55.9036 9.78165 55.743 9.81075C55.7646 10.112 55.7755 10.5047 55.7755 10.9887C55.8828 10.9925 55.9739 10.9944 56.0485 10.9944C56.6699 10.9944 56.9807 10.7797 56.9809 10.3501Z" fill="#F7F8F8"/>
<path d="M62.2847 11.0646C62.3032 11.612 62.1054 12.1448 61.7335 12.5488C61.5618 12.7386 61.351 12.8894 61.1154 12.9911C60.8799 13.0927 60.6251 13.1428 60.3684 13.1378C60.1262 13.1433 59.8855 13.0979 59.6622 13.0046C59.4388 12.9114 59.2377 12.7723 59.0721 12.5966C58.8978 12.4133 58.7619 12.1974 58.6723 11.9614C58.5827 11.7254 58.5411 11.4741 58.55 11.2221C58.5314 10.6747 58.7293 10.1418 59.1013 9.7379C59.2728 9.54824 59.4834 9.39748 59.7187 9.29585C59.954 9.19423 60.2085 9.1441 60.465 9.14889C60.7071 9.14336 60.9476 9.18856 61.171 9.28152C61.3943 9.37449 61.5955 9.51315 61.7613 9.68849C61.9361 9.87186 62.0724 10.088 62.1622 10.3243C62.2521 10.5605 62.2937 10.8122 62.2847 11.0646ZM61.4755 11.1491C61.4918 10.7931 61.3806 10.4429 61.1615 10.1608C61.0709 10.0421 60.9538 9.94596 60.8194 9.88001C60.6851 9.81405 60.5371 9.78008 60.3872 9.78078C60.2441 9.78194 60.1033 9.81726 59.9767 9.88377C59.8501 9.95027 59.7415 10.046 59.6599 10.1629C59.4524 10.4413 59.3464 10.7817 59.3596 11.1279C59.3436 11.4836 59.4554 11.8334 59.6749 12.1148C59.7653 12.2333 59.8822 12.3294 60.0163 12.3953C60.1505 12.4612 60.2982 12.4953 60.4478 12.4948C60.5911 12.4936 60.732 12.4581 60.8586 12.3913C60.9852 12.3245 61.0938 12.2285 61.1752 12.1113C61.382 11.8336 61.4879 11.4943 61.4755 11.1491Z" fill="#F7F8F8"/>
<path d="M63.9407 13.0345H63.1094C63.1349 12.4319 63.1476 11.77 63.1476 11.0487C63.1476 10.3392 63.1349 9.73572 63.1094 9.23828H63.9394C63.9141 9.72794 63.9014 10.3314 63.9014 11.0487C63.9023 11.7818 63.9154 12.4437 63.9407 13.0345Z" fill="#F7F8F8"/>
<path d="M68.1948 11.0031C68.2027 11.5342 68.0125 12.0493 67.661 12.4493C67.4746 12.6576 67.2433 12.8214 66.9843 12.9284C66.7254 13.0355 66.4454 13.0831 66.1654 13.0676C65.876 13.0676 65.4771 13.056 64.9688 13.0326C64.9941 12.4456 65.0068 11.7837 65.007 11.0468C65.007 10.3395 64.9942 9.73601 64.9688 9.2364H65.482C65.5661 9.2364 65.6913 9.23342 65.8574 9.22745C66.0236 9.22148 66.1321 9.21858 66.1829 9.21876C66.8887 9.21876 67.4006 9.39374 67.7184 9.7437C68.0336 10.0873 68.2041 10.5382 68.1948 11.0031ZM67.3943 11.1285C67.4047 10.7849 67.2882 10.4493 67.0667 10.1853C66.9389 10.051 66.7824 9.9469 66.6088 9.88058C66.4353 9.81426 66.249 9.78744 66.0636 9.80207C65.9478 9.80469 65.8322 9.81374 65.7174 9.8292C65.737 10.2183 65.7469 10.6245 65.7469 11.0479C65.7469 11.5126 65.7566 11.9733 65.7761 12.43C65.9019 12.4552 66.03 12.468 66.1583 12.468C66.3339 12.4816 66.5103 12.4533 66.6727 12.3856C66.8351 12.3178 66.979 12.2126 67.0923 12.0785C67.2988 11.8053 67.4053 11.4701 67.3943 11.1285Z" fill="#F7F8F8"/>
<path d="M73.8341 13.0345H72.8957C72.8402 12.6636 72.7508 12.2986 72.6284 11.9439H71.2734C71.1452 12.2974 71.0529 12.6627 70.9979 13.0345H70.1152C70.1152 12.9589 70.3435 12.3368 70.8 11.1684C71.0732 10.5417 71.302 9.89675 71.4847 9.23828H72.5932C72.7602 9.88452 72.9674 10.5198 73.2138 11.1405C73.4582 11.759 73.6653 12.3915 73.8341 13.0345ZM72.4791 11.3872C72.2838 10.8537 72.1163 10.3106 71.9773 9.75997H71.9308C71.9308 9.83597 71.7579 10.3784 71.4121 11.3872H72.4791Z" fill="#F7F8F8"/>
<path d="M77.2516 10.2315C77.2649 10.4337 77.2237 10.6357 77.1321 10.8166C77.0405 10.9976 76.9019 11.1509 76.7307 11.2608C76.3465 11.4924 75.9028 11.6078 75.4538 11.593C75.3617 11.593 75.2962 11.5911 75.2572 11.5873C75.2572 11.9527 75.2679 12.4347 75.2894 13.0335H74.4668C74.4923 12.4725 74.505 11.8106 74.505 11.0477C74.505 10.348 74.4923 9.7445 74.4668 9.23729H74.9774C75.0502 9.23729 75.189 9.2343 75.3937 9.22833C75.5985 9.22236 75.7764 9.21946 75.9275 9.21964C76.2593 9.20884 76.5869 9.29613 76.8689 9.47045C76.9944 9.55255 77.096 9.66617 77.1632 9.79982C77.2304 9.93347 77.2609 10.0824 77.2516 10.2315ZM76.4948 10.3917C76.4948 9.97548 76.2172 9.76739 75.6618 9.76739C75.5142 9.76815 75.3669 9.78279 75.222 9.81109C75.2436 10.1782 75.2544 10.5944 75.2542 11.0597C75.303 11.0636 75.3597 11.0656 75.4243 11.0656C76.1383 11.0655 76.4954 10.8408 76.4954 10.3917H76.4948Z" fill="#F7F8F8"/>
<path d="M80.7706 10.2315C80.7839 10.4336 80.7427 10.6356 80.6512 10.8165C80.5597 10.9975 80.4213 11.1509 80.2502 11.2608C79.8658 11.4924 79.4219 11.6078 78.9727 11.593C78.8807 11.593 78.8155 11.5911 78.7764 11.5873C78.7764 11.9527 78.7872 12.4347 78.8086 13.0335H77.9844C78.0097 12.4725 78.0224 11.8106 78.0226 11.0477C78.0226 10.348 78.0099 9.7445 77.9844 9.23729H78.4947C78.5675 9.23729 78.7063 9.2343 78.9113 9.22833C79.1162 9.22236 79.2942 9.21946 79.4451 9.21964C79.7769 9.20884 80.1045 9.29613 80.3864 9.47045C80.5123 9.55236 80.6141 9.66591 80.6816 9.79958C80.749 9.93324 80.7797 10.0823 80.7706 10.2315ZM80.014 10.3917C80.014 9.97548 79.7364 9.76739 79.181 9.76739C79.0334 9.76815 78.8861 9.78279 78.7412 9.81109C78.7629 10.1782 78.7736 10.5944 78.7734 11.0597C78.8222 11.0636 78.8789 11.0656 78.9435 11.0656C79.6572 11.0655 80.014 10.8408 80.014 10.3917Z" fill="#F7F8F8"/>
<path d="M86.5239 11.0646C86.5424 11.612 86.3444 12.1449 85.9724 12.5488C85.8008 12.7385 85.5903 12.8892 85.355 12.9909C85.1196 13.0925 84.8651 13.1426 84.6086 13.1378C84.3664 13.1433 84.1258 13.0979 83.9024 13.0046C83.679 12.9114 83.4779 12.7723 83.3123 12.5966C83.1381 12.4132 83.0022 12.1973 82.9126 11.9614C82.823 11.7254 82.7814 11.4741 82.7903 11.2221C82.7717 10.6747 82.9696 10.1419 83.3415 9.73789C83.5132 9.5481 83.724 9.39727 83.9596 9.29564C84.1951 9.19401 84.4499 9.14396 84.7066 9.14889C84.9487 9.14338 85.1892 9.18857 85.4125 9.28154C85.6359 9.3745 85.837 9.51316 86.0029 9.68849C86.1772 9.87209 86.313 10.0883 86.4024 10.3246C86.4918 10.5608 86.5331 10.8124 86.5239 11.0646ZM85.7143 11.149C85.7308 10.793 85.6195 10.4428 85.4004 10.1608C85.3098 10.0421 85.1928 9.94596 85.0584 9.88C84.9241 9.81405 84.7762 9.78008 84.6263 9.78078C84.4832 9.78194 84.3423 9.81726 84.2157 9.88376C84.0891 9.95027 83.9804 10.046 83.8987 10.1629C83.6912 10.4413 83.5853 10.7817 83.5984 11.1279C83.5825 11.4836 83.6942 11.8334 83.9138 12.1148C84.0041 12.2333 84.121 12.3294 84.255 12.3953C84.3891 12.4612 84.5368 12.4953 84.6864 12.4948C84.8297 12.4936 84.9706 12.4581 85.0972 12.3914C85.2238 12.3246 85.3324 12.2286 85.4138 12.1113C85.6208 11.8337 85.7268 11.4944 85.7143 11.149Z" fill="#F7F8F8"/>
<path d="M90.4984 13.0353H89.7741C89.7741 12.9555 89.5053 12.5347 88.9676 11.7729C88.4044 10.97 88.0837 10.4208 88.0055 10.1253H87.9588C88.0048 10.5085 88.0292 10.894 88.0319 11.28C88.0319 11.76 88.0457 12.3452 88.0732 13.0353H87.3516C87.3807 12.4327 87.3953 11.7708 87.3955 11.0495C87.3955 10.34 87.3809 9.73653 87.3516 9.23909H88.2225C88.2225 9.34187 88.464 9.75291 88.9471 10.4722C89.3056 10.9521 89.603 11.4741 89.8328 12.0264H89.8768C89.8325 11.6389 89.809 11.2493 89.8063 10.8593C89.8063 10.3327 89.7927 9.79236 89.7654 9.23828H90.4984C90.4711 9.72034 90.4575 10.3238 90.4575 11.0487C90.4575 11.7803 90.4711 12.4425 90.4984 13.0353Z" fill="#F7F8F8"/>
<defs>
<linearGradient id="paint0_linear_603_3446" x1="18.276" y1="8.74609" x2="18.276" y2="39.4991" gradientUnits="userSpaceOnUse">
<stop stop-color="#006AA2"/>
<stop offset="0.345" stop-color="#2F8DA6"/>
<stop offset="0.786" stop-color="#66B6AC"/>
<stop offset="1" stop-color="#7CC6AF"/>
</linearGradient>
<linearGradient id="paint1_linear_603_3446" x1="10.4766" y1="16.3772" x2="30.2651" y2="16.3772" gradientUnits="userSpaceOnUse">
<stop stop-color="#4AB59D"/>
<stop offset="1" stop-color="#DFE385"/>
</linearGradient>
<linearGradient id="paint2_linear_603_3446" x1="20.3707" y1="24.1211" x2="20.3707" y2="39.6094" gradientUnits="userSpaceOnUse">
<stop stop-color="#E4282D"/>
<stop offset="0.316" stop-color="#BA2D4E"/>
<stop offset="0.777" stop-color="#83357B"/>
<stop offset="1" stop-color="#6E388D"/>
</linearGradient>
<linearGradient id="paint3_linear_603_3446" x1="31.769" y1="19.9922" x2="31.769" y2="28.2523" gradientUnits="userSpaceOnUse">
<stop stop-color="#F07165"/>
<stop offset="0.659" stop-color="#FAA460"/>
<stop offset="1" stop-color="#FFBA5E"/>
</linearGradient>
</defs>
</svg>
