<svg width="88" height="88" viewBox="0 0 88 88" fill="none" xmlns="http://www.w3.org/2000/svg">
<circle cx="44" cy="44" r="44" fill="#F7CA00"/>
<path d="M35.643 47.9218C33.0128 47.9218 30.873 50.0612 30.873 52.6909C30.873 55.3206 33.0128 57.46 35.643 57.46C38.2727 57.46 40.4125 55.3206 40.4125 52.6909C40.4121 50.0612 38.2727 47.9218 35.643 47.9218ZM35.643 54.6155C34.5815 54.6155 33.718 53.7523 33.718 52.6909C33.718 51.6299 34.5815 50.7663 35.643 50.7663C36.704 50.7663 37.5676 51.6295 37.5676 52.6909C37.5676 53.7519 36.704 54.6155 35.643 54.6155Z" fill="white"/>
<path d="M62.3379 47.9218C59.7082 47.9218 57.5684 50.0612 57.5684 52.6909C57.5684 55.3206 59.7078 57.46 62.3379 57.46C64.9676 57.46 67.1074 55.3206 67.1074 52.6909C67.1078 50.0612 64.968 47.9218 62.3379 47.9218ZM62.3379 54.6155C61.2769 54.6155 60.4133 53.7523 60.4133 52.6909C60.4133 51.6299 61.2765 50.7663 62.3379 50.7663C63.3993 50.7663 64.2625 51.6295 64.2625 52.6909C64.2629 53.7519 63.3993 54.6155 62.3379 54.6155Z" fill="white"/>
<path d="M51.1247 31H31.0175C28.2727 31 26.0391 33.2332 26.0391 35.978V52.504C26.0391 53.2896 26.676 53.9261 27.4615 53.9261C28.2471 53.9261 28.884 53.2896 28.884 52.504V35.978C28.884 34.8019 29.841 33.8445 31.0175 33.8445H51.1251C52.3016 33.8445 53.2586 34.8019 53.2586 35.978V48.9481C53.2586 50.1242 52.3016 51.0816 51.1251 51.0816H42.8445C42.059 51.0816 41.4221 51.7181 41.4221 52.5036C41.4221 53.2892 42.059 53.9257 42.8445 53.9257H51.1247C53.8695 53.9257 56.1031 51.6925 56.1031 48.9477V35.978C56.1031 33.2332 53.8699 31 51.1247 31Z" fill="white"/>
<path d="M71.322 45.5584L67.9754 38.6786C67.7373 38.1895 67.2407 37.8789 66.6964 37.8789H59.0728C58.2873 37.8789 57.6504 38.5154 57.6504 39.301C57.6504 40.0865 58.2873 40.723 59.0728 40.723H65.8068L68.621 46.5083V52.5028C68.621 53.2883 69.2579 53.9249 70.0434 53.9249C70.829 53.9249 71.4659 53.2883 71.4659 52.5028V46.1807C71.4655 45.9655 71.4162 45.7523 71.322 45.5584Z" fill="white"/>
<path d="M22.6378 44.9531H16.711C16.3185 44.9531 16 45.272 16 45.6646C16 46.0571 16.3185 46.376 16.711 46.376H22.6378C23.0307 46.376 23.3488 46.0571 23.3488 45.6646C23.3488 45.272 23.0303 44.9531 22.6378 44.9531Z" fill="white"/>
<path d="M22.638 48.582H19.4376C19.0446 48.582 18.7266 48.9009 18.7266 49.2935C18.7266 49.686 19.045 50.0049 19.4376 50.0049H22.638C23.031 50.0049 23.3491 49.686 23.3491 49.2935C23.3491 48.9009 23.0306 48.582 22.638 48.582Z" fill="white"/>
<path d="M49.6015 46.6151C49.9945 46.6151 50.3126 46.2963 50.3126 45.9037V39.325C50.3126 37.2014 49.1762 36.125 46.9347 36.125H39.1134C38.7204 36.125 38.4023 36.4435 38.4023 36.8364C38.4023 37.229 38.7208 37.5479 39.1134 37.5479H46.9347C48.5704 37.5479 48.8905 38.1994 48.8905 39.3254V45.9041C48.8905 46.2963 49.209 46.6151 49.6015 46.6151Z" fill="white"/>
</svg>
