<svg width="88" height="88" viewBox="0 0 88 88" fill="none" xmlns="http://www.w3.org/2000/svg">
<circle cx="44" cy="44" r="44" fill="#0BD28E"/>
<path d="M43.512 24C32.756 24 24 32.7547 24 43.5167C24 54.2745 32.756 63.03 43.512 63.03C54.2708 63.03 63.0241 54.2745 63.0241 43.5167C63.0239 32.7547 54.2706 24 43.512 24ZM43.512 61.1496C33.7905 61.1496 25.8799 53.24 25.8799 43.5161C25.8799 33.7922 33.7903 25.8796 43.512 25.8796C53.2337 25.8796 61.1441 33.792 61.1441 43.5161C61.1441 53.2402 53.2335 61.1496 43.512 61.1496Z" fill="white"/>
<path d="M44.4472 42.1456C41.8592 41.0465 40.9526 40.275 40.9526 38.7598C40.9526 37.5434 41.6228 36.1741 43.9117 36.1741C45.8134 36.1741 47.0295 36.8605 47.654 37.2149L48.3957 35.2539C47.5038 34.7499 46.2885 34.2719 44.5362 34.2164V31.3281H42.6633V34.3005C39.9583 34.7497 38.2087 36.6197 38.2087 39.0845C38.2087 41.6702 40.0816 43.065 43.1082 44.2553C45.3095 45.1467 46.2785 46.1581 46.275 47.7908C46.2785 49.488 45.0393 50.7044 42.9327 50.7044C41.2675 50.7044 39.7203 50.1119 38.683 49.4298L37.9707 51.4169C39.0079 52.1588 40.7636 52.695 42.4835 52.7274V55.6965H44.3564V52.6073C47.4152 52.1321 49.051 49.9311 49.051 47.5566C49.0518 44.9133 47.5067 43.3971 44.4472 42.1456Z" fill="white"/>
</svg>
