<svg width="88" height="88" viewBox="0 0 88 88" fill="none" xmlns="http://www.w3.org/2000/svg">
<circle cx="44" cy="44" r="44" fill="#335DFF"/>
<path d="M59.8171 28C59.6672 28 59.5192 28.01 59.3728 28.0225C59.3363 28.0125 59.3005 28 59.2614 28H37.814C34.9308 28 32.5855 30.3453 32.5855 33.2285V55.2358H23.4357C23.1947 55.2358 23 55.4302 23 55.6715C23 58.554 25.3453 60.9 28.2285 60.9C28.3357 60.9 28.4305 60.8565 28.5066 60.7927C28.5824 60.8565 28.6772 60.9 28.7844 60.9H50.2316C53.1148 60.9 55.4601 58.5541 55.4601 55.6715C55.4601 55.6324 55.4473 55.5966 55.4381 55.5608C55.4473 55.5243 55.4601 55.4893 55.4601 55.4498V54.0337V33.6645H64.6099C64.8507 33.6645 65.0456 33.4697 65.0456 33.2289C65.0455 30.3453 62.7002 28 59.8171 28ZM50.2316 60.0286C47.8292 60.0286 45.8745 58.0747 45.8745 55.6715C45.8745 55.4302 45.6797 55.2358 45.4388 55.2358H33.4569V33.2285C33.4569 30.8258 35.4115 28.8714 37.814 28.8714H56.933C55.5221 29.8086 54.5886 31.4107 54.5886 33.2285V54.0332V55.4493C54.5886 55.4884 54.6013 55.5243 54.6107 55.56C54.6013 55.5966 54.5886 55.6316 54.5886 55.6705C54.5886 58.0737 52.634 60.0286 50.2316 60.0286Z" fill="white"/>
<path d="M50.776 51.418H38.5763C38.3352 51.418 38.1406 51.6127 38.1406 51.8537C38.1406 52.0945 38.3353 52.2892 38.5763 52.2892H50.776C51.0168 52.2892 51.2117 52.0945 51.2117 51.8537C51.2117 51.6127 51.0168 51.418 50.776 51.418Z" fill="white"/>
<path d="M50.776 47.0625H38.5763C38.3352 47.0625 38.1406 47.2573 38.1406 47.4983C38.1406 47.7391 38.3353 47.9338 38.5763 47.9338H50.776C51.0168 47.9338 51.2117 47.7391 51.2117 47.4983C51.2117 47.2573 51.0168 47.0625 50.776 47.0625Z" fill="white"/>
<path d="M50.776 42.7031H38.5763C38.3352 42.7031 38.1406 42.8978 38.1406 43.1388C38.1406 43.3796 38.3353 43.5745 38.5763 43.5745H50.776C51.0168 43.5745 51.2117 43.3796 51.2117 43.1388C51.2117 42.8978 51.0168 42.7031 50.776 42.7031Z" fill="white"/>
<path d="M50.776 38.3477H38.5763C38.3352 38.3477 38.1406 38.5423 38.1406 38.7833C38.1406 39.0242 38.3353 39.2191 38.5763 39.2191H50.776C51.0168 39.2191 51.2117 39.0242 51.2117 38.7833C51.2117 38.5422 51.0168 38.3477 50.776 38.3477Z" fill="white"/>
<path d="M50.776 33.9922H38.5763C38.3352 33.9922 38.1406 34.1869 38.1406 34.4279C38.1406 34.6687 38.3353 34.8635 38.5763 34.8635H50.776C51.0168 34.8635 51.2117 34.6686 51.2117 34.4279C51.2117 34.1869 51.0168 33.9922 50.776 33.9922Z" fill="white"/>
</svg>
